<svg width="493" height="188" viewBox="0 0 493 188" fill="none" xmlns="http://www.w3.org/2000/svg">
<path d="M33.3258 153.686V39.0628L0.610718 1.7555H80.0928L135.093 101.07L184.605 1.7555H269.028L234.776 33.1451V153.558L266.722 186.234H148.377L179.116 153.558V87.0477L131.91 186.234H115.992L63.1864 88.0769V153.686L96.2307 186.234H4.67264L33.3258 153.686ZM242.645 153.558V33.1451L277.721 1.62685C283.064 1.54109 285.532 1.62685 292.191 1.62685C298.851 1.54109 305.731 1.45532 312.831 1.36956C319.93 1.28379 327.029 1.24092 334.129 1.24092C341.227 1.15515 347.924 1.11226 354.218 1.11226C360.512 1.0265 366.184 0.983621 371.234 0.983621C376.285 0.897856 380.309 0.85498 383.31 0.85498C390.264 0.85498 397.546 1.0265 405.157 1.36956C412.768 1.71262 420.234 2.48449 427.553 3.68518C434.945 4.80012 441.934 6.51538 448.52 8.83098C455.181 11.0609 461 14.1054 465.976 17.9648C471.026 21.7385 475.015 26.4555 477.943 32.1159C480.944 37.6906 482.443 44.423 482.443 52.3134C482.443 59.0886 481.456 64.8348 479.48 69.5519C477.504 74.2689 474.649 78.214 470.916 81.3872C467.184 84.5606 462.609 87.0477 457.194 88.8487C451.851 90.564 445.739 91.8504 438.86 92.7081C446.911 93.6514 454.23 95.0667 460.816 96.9534C467.404 98.8402 473.002 101.456 477.613 104.801C482.297 108.06 485.92 112.219 488.481 117.279C491.043 122.339 492.324 128.472 492.324 135.676C492.324 143.566 490.823 150.341 487.822 156.002C484.895 161.576 480.907 166.293 475.856 170.152C470.879 173.927 465.061 176.971 458.401 179.286C451.815 181.516 444.825 183.231 437.432 184.432C430.114 185.547 422.649 186.277 415.038 186.619C407.425 186.963 400.143 187.134 393.191 187.134C389.897 187.134 385.47 187.091 379.907 187.006C374.418 187.006 368.233 186.963 361.354 186.877C354.475 186.877 347.156 186.834 339.398 186.748C331.713 186.748 323.991 186.705 316.234 186.619C308.549 186.533 301.047 186.449 293.728 186.363C286.483 186.363 279.938 186.32 274.083 186.234L242.645 153.558ZM379.907 80.8727C382.176 80.8727 384.811 80.8298 387.812 80.7441C390.813 80.6582 393.922 80.401 397.143 79.9721C400.363 79.4575 403.51 78.7285 406.584 77.7852C409.732 76.756 412.513 75.3409 414.928 73.5399C417.416 71.6531 419.393 69.2945 420.856 66.4643C422.392 63.6341 423.161 60.1607 423.161 56.0441C423.161 50.0406 421.808 45.2378 419.099 41.6358C416.465 38.0336 413.025 35.2891 408.78 33.4024C404.608 31.4298 399.961 30.1433 394.837 29.5431C389.715 28.9426 384.737 28.6424 379.907 28.6424L292.191 29.5431V79.9721L379.907 80.8727ZM387.592 159.346C390.885 159.346 394.288 159.303 397.801 159.219C401.315 159.047 404.755 158.661 408.121 158.061C411.488 157.46 414.671 156.602 417.672 155.487C420.746 154.286 423.417 152.614 425.687 150.47C427.955 148.326 429.748 145.667 431.066 142.494C432.383 139.321 433.041 135.461 433.041 130.915C433.041 126.027 432.126 121.911 430.297 118.566C428.467 115.221 425.65 112.52 421.844 110.461C418.111 108.317 413.391 106.816 407.682 105.959C401.974 105.015 395.276 104.544 387.592 104.544H292.191V158.061L387.592 159.346Z" fill="white"/>
</svg>
