<svg width="95" height="88" viewBox="0 0 95 88" fill="none" xmlns="http://www.w3.org/2000/svg">
<path d="M0.173309 73V0.272728H46.7642V11.3168H13.348V31.0611H26L35.5 42.1051H13.348V73H0.173309Z" fill="black"/>
<path d="M48 72.3V0.300003H95V11.2336V72.3H81.7942V41.7668V11.2336H61.2904V30.7805H71L80.7854 41.7141H61.2904V72.3H48Z" fill="black"/>
<path d="M0.824815 81V75.9091H4.19555V76.7965H1.90116V78.0096H3.97183V78.897H1.90116V81H0.824815ZM8.55954 81V75.9091H11.9899V76.7965H9.63589V78.0096H11.8134V78.897H9.63589V80.1126H11.9999V81H8.55954ZM20.7438 75.9091V81H19.8142L17.5993 77.7958H17.562V81H16.4857V75.9091H17.4303L19.6277 79.1108H19.6725V75.9091H20.7438ZM25.2184 81V80.3612L27.7589 76.7965H25.2135V75.9091H29.1112V76.5479L26.5682 80.1126H29.1162V81H25.2184ZM33.5821 81V75.9091H37.0125V76.7965H34.6584V78.0096H36.836V78.897H34.6584V80.1126H37.0224V81H33.5821ZM47.6458 81H46.4924L48.2499 75.9091H49.6369L51.3919 81H50.2385L48.9633 77.0724H48.9235L47.6458 81ZM47.5737 78.9989H50.2982V79.8391H47.5737V78.9989ZM58.7811 77.5547C58.7463 77.4337 58.6974 77.3268 58.6344 77.234C58.5715 77.1396 58.4944 77.06 58.4033 76.9954C58.3138 76.9291 58.211 76.8786 58.095 76.8438C57.9807 76.8089 57.8539 76.7915 57.7147 76.7915C57.4545 76.7915 57.2258 76.8562 57.0286 76.9854C56.8331 77.1147 56.6806 77.3028 56.5712 77.5497C56.4619 77.795 56.4072 78.0949 56.4072 78.4496C56.4072 78.8042 56.461 79.1058 56.5688 79.3544C56.6765 79.603 56.8289 79.7927 57.0261 79.9237C57.2233 80.0529 57.4562 80.1175 57.7246 80.1175C57.9683 80.1175 58.1762 80.0745 58.3486 79.9883C58.5226 79.9004 58.6552 79.777 58.7463 79.6179C58.8391 79.4588 58.8855 79.2707 58.8855 79.0536L59.1043 79.0859H57.7918V78.2756H59.9221V78.9169C59.9221 79.3643 59.8276 79.7488 59.6387 80.0703C59.4498 80.3902 59.1896 80.6371 58.8582 80.8111C58.5267 80.9834 58.1472 81.0696 57.7197 81.0696C57.2424 81.0696 56.8231 80.9644 56.4619 80.7539C56.1006 80.5418 55.8189 80.241 55.6167 79.8516C55.4162 79.4605 55.3159 78.9964 55.3159 78.4595C55.3159 78.0469 55.3756 77.679 55.4949 77.3558C55.6159 77.031 55.7849 76.7559 56.002 76.5305C56.2191 76.3052 56.4718 76.1336 56.7602 76.016C57.0485 75.8983 57.3609 75.8395 57.6973 75.8395C57.9857 75.8395 58.2541 75.8817 58.5027 75.9663C58.7513 76.0491 58.9717 76.1668 59.1639 76.3192C59.3578 76.4717 59.5161 76.6532 59.6387 76.8636C59.7613 77.0724 59.8401 77.3028 59.8749 77.5547H58.7811ZM64.3706 81V75.9091H67.801V76.7965H65.4469V78.0096H67.6245V78.897H65.4469V80.1126H67.8109V81H64.3706ZM76.5549 75.9091V81H75.6252L73.4104 77.7958H73.3731V81H72.2967V75.9091H73.2413L75.4388 79.1108H75.4835V75.9091H76.5549ZM85.576 77.6914H84.4872C84.4674 77.5505 84.4268 77.4254 84.3654 77.3161C84.3041 77.205 84.2254 77.1106 84.1293 77.0327C84.0332 76.9548 83.9221 76.8951 83.7962 76.8537C83.6719 76.8123 83.5368 76.7915 83.391 76.7915C83.1275 76.7915 82.898 76.857 82.7024 76.9879C82.5069 77.1172 82.3553 77.3061 82.2475 77.5547C82.1398 77.8016 82.086 78.1016 82.086 78.4545C82.086 78.8175 82.1398 79.1224 82.2475 79.3693C82.3569 79.6162 82.5094 79.8027 82.7049 79.9286C82.9005 80.0546 83.1267 80.1175 83.3836 80.1175C83.5277 80.1175 83.6611 80.0985 83.7838 80.0604C83.9081 80.0223 84.0183 79.9667 84.1144 79.8938C84.2105 79.8192 84.29 79.7289 84.353 79.6229C84.4176 79.5168 84.4624 79.3958 84.4872 79.2599L85.576 79.2649C85.5479 79.4986 85.4774 79.724 85.3647 79.9411C85.2537 80.1565 85.1037 80.3496 84.9148 80.5202C84.7275 80.6893 84.5038 80.8235 84.2436 80.9229C83.9851 81.0207 83.6926 81.0696 83.3662 81.0696C82.9121 81.0696 82.5061 80.9669 82.1481 80.7614C81.7918 80.5559 81.5101 80.2584 81.3029 79.869C81.0975 79.4795 80.9947 79.008 80.9947 78.4545C80.9947 77.8994 81.0991 77.4271 81.3079 77.0376C81.5167 76.6482 81.8001 76.3516 82.1581 76.1477C82.516 75.9422 82.9187 75.8395 83.3662 75.8395C83.6611 75.8395 83.9346 75.8809 84.1865 75.9638C84.44 76.0466 84.6646 76.1676 84.8601 76.3267C85.0557 76.4841 85.2148 76.6772 85.3374 76.9059C85.4617 77.1346 85.5412 77.3964 85.576 77.6914ZM89.6896 75.9091H90.8952L92.056 78.1016H92.1058L93.2666 75.9091H94.4722L92.6154 79.2003V81H91.5465V79.2003L89.6896 75.9091Z" fill="black"/>
</svg>
